<svg xmlns="http://www.w3.org/2000/svg" xmlns:xlink="http://www.w3.org/1999/xlink" width="800" zoomAndPan="magnify" viewBox="0 0 600 599.999999" height="800" preserveAspectRatio="xMidYMid meet" version="1.0"><defs><g/></defs><g fill="#e76a05" fill-opacity="1"><g transform="translate(24.391427, 324.380074)"><g><path d="M 23 -76.515625 L 23 0 L 5.5625 0 L 5.5625 -76.515625 Z M 23 -76.515625 "/></g></g></g><g fill="#e76a05" fill-opacity="1"><g transform="translate(52.956733, 324.380074)"><g><path d="M 5.5625 -76.515625 L 32.921875 -76.515625 C 40.285156 -76.515625 46.285156 -74.550781 50.921875 -70.625 C 55.554688 -66.695312 57.875 -61.085938 57.875 -53.796875 C 57.875 -48.171875 56.46875 -43.457031 53.65625 -39.65625 C 50.84375 -35.851562 47.023438 -33.175781 42.203125 -31.625 L 68.546875 0 L 46.375 0 L 23 -30.234375 L 23 0 L 5.5625 0 Z M 23 -42.578125 L 25.046875 -42.578125 C 26.648438 -42.578125 28.007812 -42.601562 29.125 -42.65625 C 30.238281 -42.71875 31.503906 -42.9375 32.921875 -43.3125 C 34.347656 -43.6875 35.492188 -44.210938 36.359375 -44.890625 C 37.222656 -45.566406 37.960938 -46.554688 38.578125 -47.859375 C 39.203125 -49.160156 39.515625 -50.738281 39.515625 -52.59375 C 39.515625 -54.445312 39.203125 -56.019531 38.578125 -57.3125 C 37.960938 -58.613281 37.222656 -59.601562 36.359375 -60.28125 C 35.492188 -60.96875 34.347656 -61.492188 32.921875 -61.859375 C 31.503906 -62.234375 30.238281 -62.453125 29.125 -62.515625 C 28.007812 -62.578125 26.648438 -62.609375 25.046875 -62.609375 L 23 -62.609375 Z M 23 -42.578125 "/></g></g></g><g fill="#e76a05" fill-opacity="1"><g transform="translate(119.361773, 324.380074)"><g><path d="M 2.140625 -38.3125 C 2.140625 -49.375 5.910156 -58.738281 13.453125 -66.40625 C 20.992188 -74.070312 30.082031 -77.90625 40.71875 -77.90625 C 51.414062 -77.90625 60.503906 -74.085938 67.984375 -66.453125 C 75.460938 -58.816406 79.203125 -49.4375 79.203125 -38.3125 C 79.203125 -27.113281 75.523438 -17.695312 68.171875 -10.0625 C 60.816406 -2.425781 51.664062 1.390625 40.71875 1.390625 C 29.519531 1.390625 20.289062 -2.394531 13.03125 -9.96875 C 5.769531 -17.539062 2.140625 -26.988281 2.140625 -38.3125 Z M 20.96875 -38.3125 C 20.96875 -34.289062 21.582031 -30.625 22.8125 -27.3125 C 24.050781 -24.007812 26.21875 -21.210938 29.3125 -18.921875 C 32.40625 -16.628906 36.207031 -15.484375 40.71875 -15.484375 C 47.207031 -15.484375 52.101562 -17.707031 55.40625 -22.15625 C 58.71875 -26.613281 60.375 -32 60.375 -38.3125 C 60.375 -44.550781 58.6875 -49.910156 55.3125 -54.390625 C 51.945312 -58.878906 47.082031 -61.125 40.71875 -61.125 C 34.40625 -61.125 29.535156 -58.878906 26.109375 -54.390625 C 22.679688 -49.910156 20.96875 -44.550781 20.96875 -38.3125 Z M 20.96875 -38.3125 "/></g></g></g><g fill="#e76a05" fill-opacity="1"><g transform="translate(200.698679, 324.380074)"><g><path d="M 23 -47.484375 L 23 0 L 5.5625 0 L 5.5625 -76.515625 L 23 -76.515625 L 53.421875 -29.03125 L 53.609375 -29.03125 L 53.609375 -76.515625 L 71.046875 -76.515625 L 71.046875 0 L 53.609375 0 L 23.1875 -47.484375 Z M 23 -47.484375 "/></g></g></g><g fill="#e76a05" fill-opacity="1"><g transform="translate(277.305612, 324.380074)"><g/></g></g><g fill="#e76a05" fill-opacity="1"><g transform="translate(302.62485, 324.380074)"><g><path d="M 5.5625 -76.515625 L 33.484375 -76.515625 C 41.273438 -76.515625 47.582031 -74.503906 52.40625 -70.484375 C 57.226562 -66.472656 59.640625 -60.628906 59.640625 -52.953125 C 59.640625 -45.285156 57.195312 -39.269531 52.3125 -34.90625 C 47.425781 -30.550781 41.148438 -28.375 33.484375 -28.375 L 23 -28.375 L 23 0 L 5.5625 0 Z M 23 -42.296875 L 27.921875 -42.296875 C 31.816406 -42.296875 35.015625 -43.082031 37.515625 -44.65625 C 40.023438 -46.238281 41.28125 -48.820312 41.28125 -52.40625 C 41.28125 -56.050781 40.023438 -58.660156 37.515625 -60.234375 C 35.015625 -61.816406 31.816406 -62.609375 27.921875 -62.609375 L 23 -62.609375 Z M 23 -42.296875 "/></g></g></g><g fill="#e76a05" fill-opacity="1"><g transform="translate(364.392685, 324.380074)"><g><path d="M 64.375 -76.515625 L 64.375 -27.171875 C 64.375 -17.773438 61.835938 -10.664062 56.765625 -5.84375 C 51.691406 -1.019531 44.269531 1.390625 34.5 1.390625 C 24.726562 1.390625 17.304688 -1.019531 12.234375 -5.84375 C 7.171875 -10.664062 4.640625 -17.773438 4.640625 -27.171875 L 4.640625 -76.515625 L 22.078125 -76.515625 L 22.078125 -32.28125 C 22.078125 -26.09375 23.050781 -21.789062 25 -19.375 C 26.945312 -16.96875 30.113281 -15.765625 34.5 -15.765625 C 38.894531 -15.765625 42.066406 -16.96875 44.015625 -19.375 C 45.960938 -21.789062 46.9375 -26.09375 46.9375 -32.28125 L 46.9375 -76.515625 Z M 64.375 -76.515625 "/></g></g></g><g fill="#e76a05" fill-opacity="1"><g transform="translate(433.394555, 324.380074)"><g><path d="M 68.828125 0 L 65.203125 -45.359375 L 64.734375 -45.359375 L 49.0625 -0.46875 L 38.671875 -0.46875 L 23 -45.359375 L 22.53125 -45.359375 L 18.921875 0 L 1.484375 0 L 8.34375 -76.515625 L 26.890625 -76.515625 L 43.875 -32.375 L 60.84375 -76.515625 L 79.390625 -76.515625 L 86.25 0 Z M 68.828125 0 "/></g></g></g><g fill="#e76a05" fill-opacity="1"><g transform="translate(521.130848, 324.380074)"><g><path d="M 5.5625 -76.515625 L 33.484375 -76.515625 C 41.273438 -76.515625 47.582031 -74.503906 52.40625 -70.484375 C 57.226562 -66.472656 59.640625 -60.628906 59.640625 -52.953125 C 59.640625 -45.285156 57.195312 -39.269531 52.3125 -34.90625 C 47.425781 -30.550781 41.148438 -28.375 33.484375 -28.375 L 23 -28.375 L 23 0 L 5.5625 0 Z M 23 -42.296875 L 27.921875 -42.296875 C 31.816406 -42.296875 35.015625 -43.082031 37.515625 -44.65625 C 40.023438 -46.238281 41.28125 -48.820312 41.28125 -52.40625 C 41.28125 -56.050781 40.023438 -58.660156 37.515625 -60.234375 C 35.015625 -61.816406 31.816406 -62.609375 27.921875 -62.609375 L 23 -62.609375 Z M 23 -42.296875 "/></g></g></g></svg>